<svg xmlns="http://www.w3.org/2000/svg" xmlns:xlink="http://www.w3.org/1999/xlink" width="1800" zoomAndPan="magnify" viewBox="0 0 1350 245.249991" height="327" preserveAspectRatio="xMidYMid meet" version="1.0"><defs><clipPath id="6bcb709fa6"><path d="M 2.058594 0 L 1347.941406 0 L 1347.941406 244.503906 L 2.058594 244.503906 Z M 2.058594 0 " clip-rule="nonzero"/></clipPath><clipPath id="24790f0476"><path d="M 2.058594 0 L 1347.941406 0 L 1347.941406 244.503906 L 2.058594 244.503906 Z M 2.058594 0 " clip-rule="nonzero"/></clipPath><clipPath id="f870f23dd9"><path d="M -61.648438 -3.613281 L 1719.550781 97.113281 L 1703.84375 374.820312 L -77.351562 274.09375 Z M -61.648438 -3.613281 " clip-rule="nonzero"/></clipPath><clipPath id="44060e6ebb"><path d="M 2.058594 0 L 1347.941406 0 L 1347.941406 244.503906 L 2.058594 244.503906 Z M 2.058594 0 " clip-rule="nonzero"/></clipPath><clipPath id="dbc8ca57c1"><path d="M -90.8125 107.921875 L 1688.191406 -26.085938 L 1709.085938 251.277344 L -69.917969 385.285156 Z M -90.8125 107.921875 " clip-rule="nonzero"/></clipPath></defs><g clip-path="url(#6bcb709fa6)"><path fill="#ffffff" d="M 2.058594 0 L 1347.941406 0 L 1347.941406 251.980469 L 2.058594 251.980469 Z M 2.058594 0 " fill-opacity="1" fill-rule="nonzero"/><path fill="#ffffff" d="M 2.058594 0 L 1347.941406 0 L 1347.941406 244.503906 L 2.058594 244.503906 Z M 2.058594 0 " fill-opacity="1" fill-rule="nonzero"/><path fill="#ffffff" d="M 2.058594 0 L 1347.941406 0 L 1347.941406 244.503906 L 2.058594 244.503906 Z M 2.058594 0 " fill-opacity="1" fill-rule="nonzero"/></g><g clip-path="url(#24790f0476)"><g clip-path="url(#f870f23dd9)"><path fill="#7eb0ef" d="M -61.621094 -3.609375 L 1719.523438 97.113281 L 1703.816406 374.816406 L -77.324219 274.09375 L -61.621094 -3.609375 " fill-opacity="1" fill-rule="nonzero"/></g></g><g clip-path="url(#44060e6ebb)"><g clip-path="url(#dbc8ca57c1)"><path fill="#143865" d="M -90.785156 107.921875 L 1688.164062 -26.085938 L 1709.054688 251.277344 L -69.890625 385.285156 L -90.785156 107.921875 " fill-opacity="1" fill-rule="nonzero"/></g></g></svg>