<svg xmlns="http://www.w3.org/2000/svg" xmlns:xlink="http://www.w3.org/1999/xlink" width="203" zoomAndPan="magnify" viewBox="0 0 152.25 166.499994" height="222" preserveAspectRatio="xMidYMid meet" version="1.0"><defs><clipPath id="b411d47def"><path d="M 3 12 L 151.503906 12 L 151.503906 150 L 3 150 Z M 3 12 " clip-rule="nonzero"/></clipPath><clipPath id="ef546d1fa4"><path d="M 135.648438 159.121094 L -12.492188 140.828125 L 3.332031 12.6875 L 151.472656 30.980469 Z M 135.648438 159.121094 " clip-rule="nonzero"/></clipPath><clipPath id="64a33a504d"><path d="M 135.648438 159.121094 L -12.492188 140.828125 L 3.332031 12.6875 L 151.472656 30.980469 Z M 135.648438 159.121094 " clip-rule="nonzero"/></clipPath><clipPath id="b92fc4f5dd"><path d="M 9.875 12.472656 L 75.554688 12.472656 L 75.554688 78.148438 L 9.875 78.148438 Z M 9.875 12.472656 " clip-rule="nonzero"/></clipPath></defs><g clip-path="url(#b411d47def)"><g clip-path="url(#ef546d1fa4)"><g clip-path="url(#64a33a504d)"><path fill="#d4665c" d="M 151.46875 30.992188 L 61.582031 149.960938 L 3.332031 12.699219 Z M 151.46875 30.992188 " fill-opacity="1" fill-rule="nonzero"/></g></g></g><g clip-path="url(#b92fc4f5dd)"><path fill="#143865" d="M 70.121094 12.472656 L 50.226562 12.472656 C 48.832031 12.472656 47.640625 13.390625 47.230469 14.664062 L 37.035156 14.664062 C 35.640625 14.664062 34.464844 15.59375 34.082031 16.851562 L 23.941406 16.851562 C 22.21875 16.851562 20.824219 18.246094 20.824219 19.972656 L 20.824219 20.136719 L 19.167969 20.136719 C 16.5 20.136719 13.832031 20.765625 11.449219 21.953125 C 10.480469 22.449219 9.875 23.417969 9.875 24.511719 C 9.875 25.609375 10.480469 26.578125 11.464844 27.074219 C 13.84375 28.261719 16.511719 28.890625 19.167969 28.890625 L 20.824219 28.890625 L 20.824219 29.054688 C 20.824219 30.78125 22.21875 32.175781 23.941406 32.175781 L 34.09375 32.175781 C 34.476562 33.433594 35.65625 34.363281 37.050781 34.363281 L 37.253906 34.363281 L 37.253906 35.652344 C 37.253906 35.9375 37.144531 36.210938 36.941406 36.429688 L 35.847656 37.527344 C 35.230469 38.140625 34.886719 38.976562 34.886719 39.851562 C 34.886719 40.726562 35.230469 41.546875 35.847656 42.179688 C 36.460938 42.792969 37.296875 43.136719 38.171875 43.136719 L 41.742188 43.136719 C 42.085938 44.394531 43.25 45.324219 44.617188 45.324219 C 45.234375 45.324219 45.808594 45.558594 46.230469 45.996094 L 46.449219 46.214844 C 46.914062 46.679688 47.214844 47.296875 47.3125 47.9375 L 48.3125 54.945312 C 48.585938 56.898438 48.3125 58.855469 47.515625 60.648438 L 46.941406 60.648438 C 45.519531 60.648438 44.316406 61.605469 43.945312 62.90625 C 40.773438 63.371094 38.335938 66.109375 38.335938 69.390625 L 38.335938 74.796875 C 38.335938 76.644531 39.839844 78.148438 41.6875 78.148438 L 67.835938 78.148438 C 69.683594 78.148438 71.1875 76.644531 71.1875 74.796875 L 71.1875 67.203125 C 71.1875 65.109375 69.710938 63.359375 67.753906 62.921875 C 67.328125 61.59375 66.085938 60.621094 64.621094 60.621094 L 64.511719 60.621094 L 62.417969 40.6875 C 62.429688 39.152344 62.980469 37.703125 63.992188 36.554688 L 70.121094 36.554688 C 73.117188 36.554688 75.554688 34.117188 75.554688 31.121094 L 75.554688 17.90625 C 75.554688 14.910156 73.117188 12.472656 70.121094 12.472656 Z M 19.167969 26.703125 C 16.839844 26.703125 14.515625 26.15625 12.433594 25.117188 C 12.105469 24.953125 12.066406 24.636719 12.066406 24.511719 C 12.066406 24.390625 12.105469 24.074219 12.433594 23.910156 C 14.515625 22.871094 16.839844 22.324219 19.167969 22.324219 L 20.824219 22.324219 L 20.824219 26.703125 Z M 23.011719 29.054688 L 23.011719 19.972656 C 23.011719 19.449219 23.4375 19.039062 23.941406 19.039062 L 25.199219 19.039062 L 25.199219 29.988281 L 23.941406 29.988281 C 23.4375 29.988281 23.011719 29.5625 23.011719 29.054688 Z M 27.390625 19.039062 L 33.957031 19.039062 L 33.957031 21.230469 L 29.578125 21.230469 L 29.578125 23.417969 L 33.957031 23.417969 L 33.957031 25.609375 L 29.578125 25.609375 L 29.578125 27.796875 L 33.957031 27.796875 L 33.957031 29.988281 L 27.390625 29.988281 Z M 36.148438 31.285156 L 36.148438 17.742188 C 36.148438 17.25 36.542969 16.851562 37.035156 16.851562 L 42.714844 16.851562 L 42.714844 23.417969 L 44.902344 23.417969 L 44.902344 16.851562 L 47.09375 16.851562 L 47.09375 32.175781 L 44.902344 32.175781 L 44.902344 25.609375 L 42.714844 25.609375 L 42.714844 32.175781 L 37.035156 32.175781 C 36.542969 32.175781 36.148438 31.777344 36.148438 31.285156 Z M 50.472656 54.617188 L 49.472656 47.609375 C 49.417969 47.199219 49.308594 46.789062 49.144531 46.390625 L 51.335938 46.390625 C 52.539062 46.390625 53.675781 46.855469 54.523438 47.71875 C 55.371094 48.566406 55.851562 49.703125 55.851562 50.90625 L 55.851562 60.621094 L 49.855469 60.621094 C 50.554688 58.71875 50.761719 56.667969 50.472656 54.617188 Z M 65.703125 63.917969 L 65.703125 65.015625 L 63.511719 65.015625 L 63.511719 67.203125 L 66.796875 67.203125 C 67.398438 67.203125 67.890625 66.710938 67.890625 66.109375 L 67.890625 65.316406 C 68.546875 65.699219 68.984375 66.394531 68.984375 67.203125 L 68.984375 69.390625 L 58.039062 69.390625 L 58.039062 71.582031 L 68.984375 71.582031 L 68.984375 74.796875 C 68.984375 75.441406 68.464844 75.960938 67.824219 75.960938 L 41.6875 75.960938 C 41.046875 75.960938 40.527344 75.441406 40.527344 74.796875 L 40.527344 69.390625 C 40.527344 67.355469 41.921875 65.644531 43.808594 65.152344 L 43.808594 66.109375 C 43.808594 66.710938 44.300781 67.203125 44.902344 67.203125 L 61.324219 67.203125 L 61.324219 65.015625 L 46 65.015625 L 46 63.753906 C 46 63.25 46.410156 62.824219 46.929688 62.824219 L 64.605469 62.824219 C 65.210938 62.824219 65.703125 63.316406 65.703125 63.917969 Z M 60.230469 40.863281 L 62.292969 60.636719 L 58.039062 60.636719 L 58.039062 50.921875 C 58.039062 49.128906 57.339844 47.445312 56.082031 46.1875 C 54.824219 44.929688 53.140625 44.230469 51.347656 44.230469 L 47.542969 44.230469 C 46.722656 43.519531 45.699219 43.136719 44.617188 43.136719 C 44.179688 43.136719 43.835938 42.78125 43.835938 42.355469 L 43.835938 36.554688 L 41.648438 36.554688 L 41.648438 40.933594 L 38.171875 40.933594 C 37.886719 40.933594 37.609375 40.824219 37.390625 40.617188 C 36.96875 40.195312 36.96875 39.496094 37.390625 39.070312 L 38.488281 37.976562 C 39.101562 37.363281 39.445312 36.527344 39.445312 35.652344 L 39.445312 34.363281 L 47.257812 34.363281 C 47.652344 35.636719 48.84375 36.554688 50.253906 36.554688 L 61.335938 36.554688 C 60.625 37.828125 60.242188 39.25 60.242188 40.742188 C 60.230469 40.78125 60.230469 40.824219 60.230469 40.863281 Z M 73.363281 31.121094 C 73.363281 32.914062 71.914062 34.363281 70.121094 34.363281 L 50.226562 34.363281 C 49.707031 34.363281 49.28125 33.941406 49.28125 33.421875 L 49.28125 15.605469 C 49.28125 15.085938 49.707031 14.664062 50.226562 14.664062 L 70.109375 14.664062 C 71.898438 14.664062 73.351562 16.113281 73.351562 17.90625 L 73.351562 31.121094 Z M 73.363281 31.121094 " fill-opacity="1" fill-rule="nonzero"/></g><path fill="#143865" d="M 38.335938 19.039062 L 40.527344 19.039062 L 40.527344 21.230469 L 38.335938 21.230469 Z M 38.335938 19.039062 " fill-opacity="1" fill-rule="nonzero"/><path fill="#143865" d="M 38.335938 23.417969 L 40.527344 23.417969 L 40.527344 25.609375 L 38.335938 25.609375 Z M 38.335938 23.417969 " fill-opacity="1" fill-rule="nonzero"/><path fill="#143865" d="M 38.335938 27.796875 L 40.527344 27.796875 L 40.527344 29.988281 L 38.335938 29.988281 Z M 38.335938 27.796875 " fill-opacity="1" fill-rule="nonzero"/><path fill="#143865" d="M 67.890625 21.230469 L 52.566406 21.230469 C 51.964844 21.230469 51.472656 21.722656 51.472656 22.324219 L 51.472656 24.511719 L 53.660156 24.511719 L 53.660156 23.417969 L 66.796875 23.417969 L 66.796875 28.890625 L 53.660156 28.890625 L 53.660156 26.703125 L 51.472656 26.703125 L 51.472656 29.988281 C 51.472656 30.589844 51.964844 31.082031 52.566406 31.082031 L 67.890625 31.082031 C 68.492188 31.082031 68.984375 30.589844 68.984375 29.988281 L 68.984375 22.324219 C 68.984375 21.722656 68.492188 21.230469 67.890625 21.230469 Z M 67.890625 21.230469 " fill-opacity="1" fill-rule="nonzero"/><path fill="#143865" d="M 56.945312 16.851562 L 59.132812 16.851562 L 59.132812 19.039062 L 56.945312 19.039062 Z M 56.945312 16.851562 " fill-opacity="1" fill-rule="nonzero"/><path fill="#143865" d="M 52.566406 16.851562 L 54.753906 16.851562 L 54.753906 19.039062 L 52.566406 19.039062 Z M 52.566406 16.851562 " fill-opacity="1" fill-rule="nonzero"/><path fill="#143865" d="M 61.324219 16.851562 L 63.511719 16.851562 L 63.511719 19.039062 L 61.324219 19.039062 Z M 61.324219 16.851562 " fill-opacity="1" fill-rule="nonzero"/><path fill="#143865" d="M 65.703125 16.851562 L 67.890625 16.851562 L 67.890625 19.039062 L 65.703125 19.039062 Z M 65.703125 16.851562 " fill-opacity="1" fill-rule="nonzero"/><path fill="#143865" d="M 44.902344 69.390625 L 55.851562 69.390625 L 55.851562 71.582031 L 44.902344 71.582031 Z M 44.902344 69.390625 " fill-opacity="1" fill-rule="nonzero"/></svg>