<svg xmlns="http://www.w3.org/2000/svg" xmlns:xlink="http://www.w3.org/1999/xlink" width="40" zoomAndPan="magnify" viewBox="0 0 30 30.000001" height="40" preserveAspectRatio="xMidYMid meet" version="1.0"><defs><clipPath id="47a942152e"><path d="M 6 1.414062 L 23 1.414062 L 23 25 L 6 25 Z M 6 1.414062 " clip-rule="nonzero"/></clipPath><clipPath id="6880ecba9a"><path d="M 1.988281 19 L 27.914062 19 L 27.914062 27.542969 L 1.988281 27.542969 Z M 1.988281 19 " clip-rule="nonzero"/></clipPath></defs><g clip-path="url(#47a942152e)"><path fill="#000000" d="M 14.949219 2.441406 C 12.4375 2.441406 10.191406 3.738281 8.9375 5.914062 C 7.679688 8.089844 7.679688 10.6875 8.933594 12.863281 L 14.949219 23.28125 L 20.96875 12.863281 C 22.226562 10.6875 22.226562 8.089844 20.96875 5.914062 C 19.714844 3.738281 17.464844 2.441406 14.949219 2.441406 Z M 14.949219 24.824219 C 14.769531 24.824219 14.597656 24.722656 14.507812 24.566406 L 8.046875 13.375 C 6.605469 10.878906 6.605469 7.898438 8.046875 5.402344 C 9.488281 2.90625 12.070312 1.414062 14.949219 1.414062 C 17.835938 1.414062 20.414062 2.90625 21.855469 5.402344 C 23.296875 7.898438 23.296875 10.878906 21.855469 13.375 L 15.394531 24.566406 C 15.304688 24.722656 15.132812 24.824219 14.949219 24.824219 " fill-opacity="1" fill-rule="nonzero"/></g><path fill="#000000" d="M 14.949219 7.921875 C 14.003906 7.921875 13.230469 8.695312 13.230469 9.640625 C 13.230469 10.589844 14.003906 11.363281 14.949219 11.363281 C 15.898438 11.363281 16.671875 10.589844 16.671875 9.640625 C 16.671875 8.695312 15.898438 7.921875 14.949219 7.921875 Z M 14.949219 12.386719 C 13.4375 12.386719 12.207031 11.15625 12.207031 9.640625 C 12.207031 8.128906 13.4375 6.898438 14.949219 6.898438 C 16.464844 6.898438 17.695312 8.125 17.695312 9.640625 C 17.695312 11.15625 16.464844 12.386719 14.949219 12.386719 " fill-opacity="1" fill-rule="nonzero"/><g clip-path="url(#6880ecba9a)"><path fill="#000000" d="M 14.949219 27.542969 C 8.667969 27.542969 1.988281 26.011719 1.988281 23.175781 C 1.988281 21.289062 5 19.773438 10.039062 19.113281 C 10.320312 19.074219 10.578125 19.273438 10.613281 19.554688 C 10.652344 19.835938 10.453125 20.09375 10.171875 20.128906 C 5.472656 20.746094 3.011719 22.125 3.011719 23.175781 C 3.011719 23.925781 4.273438 24.785156 6.300781 25.414062 C 8.605469 26.128906 11.675781 26.519531 14.953125 26.519531 C 18.226562 26.519531 21.300781 26.128906 23.601562 25.414062 C 25.628906 24.785156 26.890625 23.925781 26.890625 23.175781 C 26.890625 22.132812 24.449219 20.753906 19.78125 20.136719 C 19.5 20.097656 19.300781 19.839844 19.339844 19.558594 C 19.375 19.277344 19.628906 19.078125 19.914062 19.121094 C 24.925781 19.78125 27.914062 21.300781 27.914062 23.175781 C 27.914062 26.011719 21.234375 27.542969 14.949219 27.542969 " fill-opacity="1" fill-rule="nonzero"/></g></svg>