<svg xmlns="http://www.w3.org/2000/svg" xmlns:xlink="http://www.w3.org/1999/xlink" width="40" zoomAndPan="magnify" viewBox="0 0 30 30.000001" height="40" preserveAspectRatio="xMidYMid meet" version="1.0"><defs><clipPath id="15d5ae5f9e"><path d="M 1.355469 0.871094 L 28.933594 0.871094 L 28.933594 28.453125 L 1.355469 28.453125 Z M 1.355469 0.871094 " clip-rule="nonzero"/></clipPath></defs><g clip-path="url(#15d5ae5f9e)"><path fill="#ffffff" d="M 15.152344 0.875 C 7.546875 0.875 1.359375 7.0625 1.359375 14.667969 C 1.359375 22.273438 7.546875 28.457031 15.152344 28.457031 C 22.753906 28.457031 28.941406 22.273438 28.941406 14.667969 C 28.941406 7.0625 22.753906 0.875 15.152344 0.875 Z M 15.152344 1.796875 C 22.257812 1.796875 28.023438 7.558594 28.023438 14.667969 C 28.023438 21.777344 22.257812 27.539062 15.152344 27.539062 C 8.042969 27.539062 2.28125 21.777344 2.28125 14.667969 C 2.28125 7.558594 8.042969 1.796875 15.152344 1.796875 " fill-opacity="1" fill-rule="nonzero"/></g><path fill="#ffffff" d="M 12.347656 11.300781 L 7.980469 6.363281 C 7.984375 6.355469 7.988281 6.351562 7.988281 6.351562 C 9.058594 5.414062 9.972656 6.601562 10.824219 7.515625 C 11.550781 8.300781 12.777344 9.589844 12.574219 10.761719 C 12.542969 10.957031 12.457031 11.128906 12.347656 11.300781 " fill-opacity="1" fill-rule="nonzero"/><path fill="#ffffff" d="M 17.789062 17.449219 L 22.601562 22.050781 C 22.433594 22.214844 22.152344 22.480469 22.136719 22.488281 C 21.074219 23.515625 19.398438 23.71875 18.015625 23.390625 C 17.507812 23.273438 17.011719 23.101562 16.535156 22.894531 C 14.378906 21.960938 12.339844 20.304688 10.695312 18.5625 C 9.042969 16.828125 7.5 14.703125 6.683594 12.5 C 6.496094 12.015625 6.355469 11.507812 6.261719 10.996094 C 6.015625 9.59375 6.304688 7.933594 7.386719 6.921875 C 7.390625 6.914062 7.511719 6.800781 7.644531 6.675781 L 12.078125 11.683594 C 11.871094 11.953125 11.644531 12.226562 11.527344 12.535156 C 11.21875 13.347656 11.363281 14.164062 11.878906 14.863281 C 12.222656 15.328125 12.648438 15.824219 13.09375 16.289062 C 13.53125 16.757812 14.003906 17.207031 14.457031 17.578125 C 15.125 18.132812 15.929688 18.320312 16.761719 18.050781 C 17.128906 17.933594 17.457031 17.671875 17.789062 17.449219 " fill-opacity="1" fill-rule="nonzero"/><path fill="#ffffff" d="M 22.910156 21.714844 L 18.207031 17.210938 C 18.328125 17.160156 18.457031 17.117188 18.585938 17.105469 C 19.769531 16.960938 20.988281 18.253906 21.726562 19.023438 C 22.542969 19.863281 23.59375 20.769531 22.910156 21.714844 " fill-opacity="1" fill-rule="nonzero"/><path fill="#ffffff" d="M 20.207031 15.121094 C 19.964844 15.121094 19.761719 14.929688 19.75 14.6875 C 19.6875 13.660156 19.265625 12.683594 18.558594 11.941406 C 17.855469 11.195312 16.902344 10.722656 15.882812 10.605469 C 15.628906 10.578125 15.449219 10.347656 15.476562 10.097656 C 15.503906 9.84375 15.730469 9.664062 15.984375 9.691406 C 17.222656 9.832031 18.375 10.40625 19.226562 11.308594 C 20.082031 12.210938 20.59375 13.390625 20.667969 14.632812 C 20.683594 14.886719 20.488281 15.105469 20.234375 15.117188 C 20.226562 15.121094 20.21875 15.121094 20.207031 15.121094 " fill-opacity="1" fill-rule="nonzero"/><path fill="#ffffff" d="M 23.105469 15.558594 C 22.863281 15.558594 22.660156 15.371094 22.648438 15.125 C 22.535156 13.253906 21.765625 11.476562 20.480469 10.121094 C 19.195312 8.761719 17.460938 7.898438 15.597656 7.6875 C 15.347656 7.660156 15.164062 7.433594 15.191406 7.179688 C 15.222656 6.925781 15.449219 6.746094 15.703125 6.773438 C 17.777344 7.007812 19.714844 7.972656 21.148438 9.488281 C 22.582031 11 23.441406 12.984375 23.566406 15.070312 C 23.582031 15.324219 23.386719 15.542969 23.132812 15.558594 C 23.125 15.558594 23.117188 15.558594 23.105469 15.558594 " fill-opacity="1" fill-rule="nonzero"/></svg>